Coordinates
version=1
nRows=26
nColumns=24
inDegrees=yes

Units are S.I. units (second, meters, Newtons, ...)
Angles are in degrees.

endheader
time	pelvis_tilt	pelvis_list	pelvis_rotation	pelvis_tx	pelvis_ty	pelvis_tz	hip_flexion_r	hip_adduction_r	hip_rotation_r	knee_angle_r	ankle_angle_r	subtalar_angle_r	mtp_angle_r	hip_flexion_l	hip_adduction_l	hip_rotation_l	knee_angle_l	ankle_angle_l	subtalar_angle_l	mtp_angle_l	lumbar_extension	lumbar_bending	lumbar_rotation
      1.19150000	      0.50699776	      8.25834121	     -6.52774644	      0.20935443	      1.00703653	      0.25479671	     10.83100945	    -11.80156233	      0.52437792	    -65.21390872	     -5.71902901	     -7.21917020	      7.21536812	      7.47345967	     13.29261358	      5.08254098	    -17.76908301	      7.29924179	    -17.28628640	     -6.14333529	    -12.78626993	     -4.25189407	      0.61358079
      1.19566667	      0.50938223	      8.12723686	     -6.50671122	      0.21433974	      1.00792771	      0.25462583	     11.27577894	    -11.61078404	      0.51112571	    -65.05716947	     -4.66388029	     -7.57839890	      6.69796685	      6.90230898	     13.20990558	      5.32899947	    -17.28364432	      7.12315183	    -17.53803236	     -6.28071584	    -12.79979127	     -4.02801121	      0.28557655
      1.19983333	      0.47748398	      7.93731763	     -6.50801259	      0.21932958	      1.00878670	      0.25455017	     11.73710051	    -11.32347595	      0.53801134	    -64.82117354	     -3.68157023	     -7.94232496	      6.64067752	      6.39975979	     13.03092514	      5.38658524	    -16.87704511	      7.12819169	    -17.50778654	     -6.29826948	    -12.76478494	     -3.77831568	      0.24200344
      1.20400000	      0.54501720	      7.76100101	     -6.47230833	      0.22431750	      1.00979116	      0.25434856	     12.06994038	    -11.09148897	      0.48974558	    -64.53450172	     -2.66994100	     -8.17828627	      2.95304672	      5.72691214	     12.91391699	      5.71956875	    -16.34421204	      6.95581016	    -17.86271217	     -7.16555183	    -12.87234925	     -3.50083498	      0.06194440
      1.20816667	      0.51691803	      7.56115564	     -6.44496246	      0.22928518	      1.01064006	      0.25425037	     12.49799384	    -10.79290615	      0.48494202	    -64.18711658	     -1.79697421	     -8.53722044	      2.89542580	      5.21736321	     12.71871757	      5.77223997	    -15.92628740	      6.91819182	    -17.77813830	     -7.17615329	    -12.84339720	     -3.17214658	     -0.32204451
      1.21233333	      0.52805257	      7.39432886	     -6.38996110	      0.23424982	      1.01152107	      0.25408882	     12.87242249	    -10.55240154	      0.43500313	    -63.79304516	     -0.95656683	     -8.91666928	      2.78334123	      4.64304816	     12.57768544	      5.95014764	    -15.45652675	      6.80100943	    -17.85732997	     -7.19843853	    -12.86914707	     -2.90871962	     -0.60262861
      1.21650000	      0.51196573	      7.19364823	     -6.33399549	      0.23920364	      1.01237068	      0.25396112	     13.25529099	    -10.25569605	      0.40030111	    -63.33163341	     -0.17004190	     -9.28213537	      2.67869620	      4.10227702	     12.39138623	      6.10874966	    -15.00217395	      6.70317603	    -17.92662761	     -7.21910362	    -12.86825942	     -2.61983489	     -0.81271901
      1.22066667	      0.52296772	      7.02595395	     -6.26019655	      0.24414832	      1.01321306	      0.25378585	     13.60439896	    -10.01380413	      0.33485948	    -62.83433373	      0.59058199	     -9.66903462	      2.49926437	      3.52693006	     12.24586302	      6.30500888	    -14.52299319	      6.54657680	    -18.03756589	     -7.25122516	    -12.89871143	     -2.34201458	     -1.09924273
      1.22483333	      0.47917418	      6.86031568	     -6.17135511	      0.24910282	      1.01396943	      0.25359677	     13.99865920	     -9.76703565	      0.26909626	    -62.28842273	      1.34685680	     -9.94326588	      1.69763653	      3.00387919	     12.09883372	      6.54756504	    -14.02888516	      6.31720535	    -18.25623825	     -7.37053553	    -12.85437730	     -2.07510420	     -1.31777084
      1.22900000	      0.49370806	      6.65777796	     -6.09611730	      0.25402288	      1.01479484	      0.25349732	     14.30651457	     -9.46346867	      0.22595816	    -61.66749858	      2.01015355	    -10.39199656	      1.53725154	      2.44868602	     11.89751162	      6.64765221	    -13.60284274	      6.27234483	    -18.19260901	     -7.39168612	    -12.90086960	     -1.79246259	     -1.55118394
      1.23316667	      0.47469537	      6.46345797	     -6.01302779	      0.25895077	      1.01554785	      0.25336876	     14.64078880	     -9.17092301	      0.18090248	    -61.00222089	      2.65076450	    -10.73654416	      1.40196552	      1.92241268	     11.70459398	      6.78842100	    -13.15651077	      6.16553362	    -18.21473006	     -7.41004723	    -12.89777217	     -1.49227408	     -1.76070903
      1.23733333	      0.44917140	      6.28717239	     -5.91322526	      0.26386682	      1.01625442	      0.25322936	     14.97215245	     -8.90136506	      0.12564740	    -60.29596163	      3.27979103	    -11.07888706	      1.24637252	      1.40907132	     11.52917619	      6.94318158	    -12.71438553	      6.02460160	    -18.26489434	     -7.42892879	    -12.88539042	     -1.21868656	     -1.99551002
      1.24150000	      0.39012728	      6.10587356	     -5.79884032	      0.26876269	      1.01688889	      0.25310629	     15.32204924	     -8.61788513	      0.07123205	    -59.53861036	      3.91887829	    -11.38942542	      1.15034652	      0.96172746	     11.33726001	      7.04306172	    -12.33386293	      5.89874155	    -18.26010494	     -7.44033690	    -12.83603637	     -0.97693311	     -2.14222819
      1.24566667	      0.38178583	      5.93069324	     -5.69429919	      0.27367556	      1.01757392	      0.25297682	     15.60560188	     -8.34963916	      0.02446723	    -58.72787953	      4.44410099	    -11.72956803	      0.96524090	      0.42417994	     11.16031304	      7.22512669	    -11.87368196	      5.75391281	    -18.31289539	     -7.45486607	    -12.84366790	     -0.68422585	     -2.43336388
      1.24983333	      0.34985112	      5.76524019	     -5.57197650	      0.27855833	      1.01816860	      0.25284797	     15.90437527	     -8.09034270	     -0.02797391	    -57.88235510	      5.00202125	    -12.02164817	      0.71515281	     -0.06111947	     10.98739822	      7.38527077	    -11.46379349	      5.59409096	    -18.36362237	     -7.46864936	    -12.82664985	     -0.43158439	     -2.68932911
      1.25400000	      0.24989806	      5.62886690	     -5.45616707	      0.28340622	      1.01860054	      0.25273270	     16.28919256	     -7.85594975	     -0.05861621	    -57.02910273	      5.59251607	    -12.24661026	      0.65110863	     -0.43616925	     10.83170904	      7.45136519	    -11.11420438	      5.48765645	    -18.28691379	     -7.47271759	    -12.75240916	     -0.22446594	     -2.74521172
      1.25816667	      0.23264624	      5.45670851	     -5.31411736	      0.28827688	      1.01917970	      0.25262097	     16.53025742	     -7.58810839	     -0.10871636	    -56.06443578	      6.03853602	    -12.56464946	      0.29690316	     -0.92542776	     10.64793156	      7.63590332	    -10.72853319	      5.30551133	    -18.37846938	     -7.47741517	    -12.74098300	      0.03332642	     -3.12370312
      1.26233333	      0.14361419	      5.29748295	     -5.19337019	      0.29313798	      1.01958619	      0.25252639	     16.85803728	     -7.32791402	     -0.13111877	    -55.08926894	      6.52409036	    -12.71796637	      0.18667491	     -1.29871582	     10.46581282	      7.70048715	    -10.41363393	      5.21786978	    -18.32825088	     -7.47769383	    -12.65372198	      0.26468168	     -3.19162560
      1.26650000	      0.07955013	      5.13596505	     -5.06043426	      0.29798661	      1.02002036	      0.25244190	     17.13597124	     -7.06694793	     -0.15471781	    -54.05333050	      6.94160288	    -12.93462330	      0.04761215	     -1.70061880	     10.28088285	      7.79750995	    -10.09265108	      5.10394289	    -18.29611393	     -7.47532865	    -12.60483627	      0.50561532	     -3.36462341
      1.27066667	      0.02377178	      5.02037117	     -4.93445928	      0.30283255	      1.02037920	      0.25235440	     17.41503268	     -6.86017928	     -0.16402808	    -53.01892505	      7.41014473	    -13.09523824	     -3.68896283	     -2.13725237	     10.15323796	      8.01228464	     -9.70402494	      4.88682575	    -18.49600506	     -7.26404361	    -12.56596049	      0.68841418	     -3.55187701
      1.27483333	     -0.08212771	      4.87431416	     -4.78610650	      0.30765855	      1.02066209	      0.25227469	     17.71654944	     -6.62039220	     -0.18773534	    -51.90941844	      7.77591772	    -13.22070421	     -3.70375329	     -2.45174784	      9.97480540	      8.05665775	     -9.46578353	      4.82705309	    -18.34956521	     -7.26239227	    -12.46732590	      0.90947554	     -3.69989515
      1.27900000	     -0.15211942	      4.75094452	     -4.64534915	      0.31249013	      1.02094957	      0.25221886	     17.97246824	     -6.40887415	     -0.20095922	    -50.76571411	      8.06934910	    -13.41440273	     -3.74466882	     -2.82126529	      9.82346345	      8.14783516	     -9.18591797	      4.77286727	    -18.25314209	     -7.25417546	    -12.40411260	      1.11038253	     -3.95121951
      1.28316667	     -0.27004003	      4.62645312	     -4.49477069	      0.31729417	      1.02112818	      0.25215285	     18.26629640	     -6.19665217	     -0.21226567	    -49.58417321	      8.39409383	    -13.51068148	     -3.77000488	     -3.10625381	      9.66788197	      8.22131603	     -8.97323391	      4.69008539	    -18.18369165	     -7.24844754	    -12.30198658	      1.29532045	     -4.05643336
      1.28733333	     -0.36032971	      4.51579016	     -4.34915922	      0.32211502	      1.02131267	      0.25210860	     18.51762786	     -6.00337127	     -0.21904971	    -48.36089467	      8.61882837	    -13.67330578	     -3.82980478	     -3.43666974	      9.52758576	      8.32936433	     -8.72369760	      4.62309564	    -18.13785085	     -7.23151420	    -12.21754874	      1.47672688	     -4.29124141
      1.29150000	     -0.48302871	      4.41372509	     -4.19745827	      0.32690331	      1.02140786	      0.25205623	     18.79429023	     -5.82328726	     -0.22462955	    -47.10797823	      8.87841547	    -13.72477471	     -3.86751439	     -3.69819551	      9.39507731	      8.40848880	     -8.54081513	      4.54533105	    -18.07846794	     -7.21964127	    -12.11295428	      1.63589367	     -4.39588161
      1.29566667	     -0.62477714	      4.31705240	     -4.04422672	      0.33169312	      1.02144041	      0.25202562	     19.07611246	     -5.64817439	     -0.22487200	    -45.81485401	      9.08392844	    -13.79313942	     -3.90877699	     -3.93477793	      9.26516510	      8.50255710	     -8.36635569	      4.48336932	    -18.02316766	     -7.20500744	    -11.98115525	      1.78866246	     -4.52975528
